<svg width="344" height="94" viewBox="0 0 344 94" fill="none" xmlns="http://www.w3.org/2000/svg">
<g filter="url(#filter0_d_231_1044)">
<mask id="path-1-outside-1_231_1044" maskUnits="userSpaceOnUse" x="-0.999023" y="14" width="330" height="57" fill="black">
<rect fill="white" x="-0.999023" y="14" width="330" height="57"/>
<path d="M30.7039 19.0531C36.0142 19.0531 40.1027 20.2984 42.9693 22.7891C45.8829 25.2328 47.3398 28.6398 47.3398 33.0103C47.3398 39.3074 45.3425 44.2183 41.348 47.7429C37.3535 51.2204 32.0197 52.9592 25.3466 52.9592H19.7073L17.1696 66H3.77638L12.8697 19.0531H30.7039ZM25.6286 41.2577C31.0329 41.2577 33.735 39.3074 33.735 35.4069C33.735 32.4933 31.7143 31.0365 27.6728 31.0365H23.9368L21.963 41.2577H25.6286ZM59.2891 53.4526H75.643V66H45.8958V19.0531H59.2891V53.4526ZM89.4955 54.4395H106.202V66H76.1022V19.0531H105.567V30.6136H89.4955V36.4643H104.087V48.0248H89.4955V54.4395ZM150.18 19.0531L147.713 31.7414H134.813L128.187 66H114.934L121.561 31.7414H108.308L110.775 19.0531H150.18ZM174.856 19.0531H188.249V66H174.856V48.8002H158.995V66H145.602V19.0531H158.995V36.1119H174.856V19.0531ZM213.897 67.1279C206.8 67.1279 201.161 65.1071 196.979 61.0656C192.843 56.9772 190.893 51.5964 191.128 44.9232C191.41 37.0752 193.877 30.6136 198.53 25.5382C203.229 20.4159 209.62 17.8547 217.703 17.8547C224.799 17.8547 230.415 19.899 234.55 23.9874C238.733 28.0289 240.707 33.3862 240.472 40.0593C240.19 47.9543 237.699 54.4395 233 59.5148C228.347 64.5902 221.979 67.1279 213.897 67.1279ZM214.319 55.7083C218.079 55.7083 220.969 54.181 222.99 51.1264C225.011 48.0248 226.021 44.2653 226.021 39.8479C226.021 36.6053 225.246 34.0441 223.695 32.1644C222.144 30.2376 220.006 29.2742 217.28 29.2742C213.474 29.2742 210.56 30.8015 208.539 33.8561C206.565 36.9108 205.579 40.6468 205.579 45.0642C205.579 48.4008 206.33 51.0089 207.834 52.8887C209.385 54.7684 211.547 55.7083 214.319 55.7083ZM281.656 33.5742C281.656 37.2397 280.764 40.4588 278.978 43.2314C277.239 46.0041 274.654 48.1423 271.224 49.6461L277.779 66H263.611L258.535 52.0428H257.972H254.024L251.345 66H237.952L247.045 19.0531H265.021C270.425 19.0531 274.537 20.3689 277.357 23.0006C280.223 25.5852 281.656 29.1098 281.656 33.5742ZM258.112 30.6136L256.068 41.1167H260.157C265.373 41.1167 267.981 39.2135 267.981 35.4069C267.981 32.2114 266.031 30.6136 262.13 30.6136H258.112ZM309.871 66L307.474 58.3165H291.402L288.935 66H275.753L291.332 19.0531H307.968L323.546 66H309.871ZM294.715 47.8838H304.161L300.143 35.266L299.438 32.3053L298.663 35.3365L294.715 47.8838Z"/>
</mask>
<path d="M30.7039 19.0531C36.0142 19.0531 40.1027 20.2984 42.9693 22.7891C45.8829 25.2328 47.3398 28.6398 47.3398 33.0103C47.3398 39.3074 45.3425 44.2183 41.348 47.7429C37.3535 51.2204 32.0197 52.9592 25.3466 52.9592H19.7073L17.1696 66H3.77638L12.8697 19.0531H30.7039ZM25.6286 41.2577C31.0329 41.2577 33.735 39.3074 33.735 35.4069C33.735 32.4933 31.7143 31.0365 27.6728 31.0365H23.9368L21.963 41.2577H25.6286ZM59.2891 53.4526H75.643V66H45.8958V19.0531H59.2891V53.4526ZM89.4955 54.4395H106.202V66H76.1022V19.0531H105.567V30.6136H89.4955V36.4643H104.087V48.0248H89.4955V54.4395ZM150.18 19.0531L147.713 31.7414H134.813L128.187 66H114.934L121.561 31.7414H108.308L110.775 19.0531H150.18ZM174.856 19.0531H188.249V66H174.856V48.8002H158.995V66H145.602V19.0531H158.995V36.1119H174.856V19.0531ZM213.897 67.1279C206.8 67.1279 201.161 65.1071 196.979 61.0656C192.843 56.9772 190.893 51.5964 191.128 44.9232C191.41 37.0752 193.877 30.6136 198.53 25.5382C203.229 20.4159 209.62 17.8547 217.703 17.8547C224.799 17.8547 230.415 19.899 234.55 23.9874C238.733 28.0289 240.707 33.3862 240.472 40.0593C240.19 47.9543 237.699 54.4395 233 59.5148C228.347 64.5902 221.979 67.1279 213.897 67.1279ZM214.319 55.7083C218.079 55.7083 220.969 54.181 222.99 51.1264C225.011 48.0248 226.021 44.2653 226.021 39.8479C226.021 36.6053 225.246 34.0441 223.695 32.1644C222.144 30.2376 220.006 29.2742 217.28 29.2742C213.474 29.2742 210.56 30.8015 208.539 33.8561C206.565 36.9108 205.579 40.6468 205.579 45.0642C205.579 48.4008 206.33 51.0089 207.834 52.8887C209.385 54.7684 211.547 55.7083 214.319 55.7083ZM281.656 33.5742C281.656 37.2397 280.764 40.4588 278.978 43.2314C277.239 46.0041 274.654 48.1423 271.224 49.6461L277.779 66H263.611L258.535 52.0428H257.972H254.024L251.345 66H237.952L247.045 19.0531H265.021C270.425 19.0531 274.537 20.3689 277.357 23.0006C280.223 25.5852 281.656 29.1098 281.656 33.5742ZM258.112 30.6136L256.068 41.1167H260.157C265.373 41.1167 267.981 39.2135 267.981 35.4069C267.981 32.2114 266.031 30.6136 262.13 30.6136H258.112ZM309.871 66L307.474 58.3165H291.402L288.935 66H275.753L291.332 19.0531H307.968L323.546 66H309.871ZM294.715 47.8838H304.161L300.143 35.266L299.438 32.3053L298.663 35.3365L294.715 47.8838Z" fill="white"/>
<path d="M42.9693 22.7891L40.6577 25.4497L40.6809 25.4698L40.7044 25.4896L42.9693 22.7891ZM41.348 47.7429L43.6623 50.4011L43.6712 50.3935L43.6799 50.3857L41.348 47.7429ZM19.7073 52.9592V49.4346H16.8025L16.2477 52.286L19.7073 52.9592ZM17.1696 66V69.5245H20.0744L20.6293 66.6732L17.1696 66ZM3.77638 66L0.316144 65.3298L-0.496356 69.5245H3.77638V66ZM12.8697 19.0531V15.5285H9.96233L9.40947 18.3828L12.8697 19.0531ZM23.9368 31.0365V27.512H21.0277L20.4762 30.3683L23.9368 31.0365ZM21.963 41.2577L18.5024 40.5894L17.6928 44.7822H21.963V41.2577ZM30.7039 22.5776C35.5014 22.5776 38.6475 23.7031 40.6577 25.4497L45.281 20.1285C41.5579 16.8937 36.5271 15.5285 30.7039 15.5285V22.5776ZM40.7044 25.4896C42.6954 27.1594 43.8152 29.5082 43.8152 33.0103H50.8643C50.8643 27.7715 49.0705 23.3061 45.2342 20.0886L40.7044 25.4896ZM43.8152 33.0103C43.8152 38.4983 42.1129 42.3675 39.0161 45.1L43.6799 50.3857C48.5721 46.0691 50.8643 40.1166 50.8643 33.0103H43.8152ZM39.0337 45.0846C35.8343 47.8699 31.3973 49.4346 25.3466 49.4346V56.4837C32.6421 56.4837 38.8728 54.5709 43.6623 50.4011L39.0337 45.0846ZM25.3466 49.4346H19.7073V56.4837H25.3466V49.4346ZM16.2477 52.286L13.71 65.3268L20.6293 66.6732L23.167 53.6324L16.2477 52.286ZM17.1696 62.4755H3.77638V69.5245H17.1696V62.4755ZM7.23661 66.6702L16.3299 19.7233L9.40947 18.3828L0.316144 65.3298L7.23661 66.6702ZM12.8697 22.5776H30.7039V15.5285H12.8697V22.5776ZM25.6286 44.7822C28.6491 44.7822 31.5498 44.2562 33.7711 42.6529C36.2052 40.8961 37.2596 38.2691 37.2596 35.4069H30.2105C30.2105 36.4453 29.9137 36.7437 29.6457 36.9371C29.1649 37.2841 28.0123 37.7332 25.6286 37.7332V44.7822ZM37.2596 35.4069C37.2596 33.0366 36.3744 30.7796 34.2806 29.2701C32.4003 27.9145 30.0114 27.512 27.6728 27.512V34.5611C29.3757 34.5611 30.0179 34.8869 30.1583 34.9881C30.1827 35.0058 30.1832 35.0101 30.1734 34.9984C30.1693 34.9934 30.1651 34.9877 30.1616 34.982C30.158 34.9764 30.1566 34.9733 30.157 34.9741C30.1572 34.9745 30.1698 35.0014 30.183 35.0677C30.1964 35.1356 30.2105 35.2456 30.2105 35.4069H37.2596ZM27.6728 27.512H23.9368V34.5611H27.6728V27.512ZM20.4762 30.3683L18.5024 40.5894L25.4236 41.9259L27.3974 31.7048L20.4762 30.3683ZM21.963 44.7822H25.6286V37.7332H21.963V44.7822ZM59.2891 53.4526H55.7645V56.9772H59.2891V53.4526ZM75.643 53.4526H79.1675V49.9281H75.643V53.4526ZM75.643 66V69.5245H79.1675V66H75.643ZM45.8958 66H42.3712V69.5245H45.8958V66ZM45.8958 19.0531V15.5285H42.3712V19.0531H45.8958ZM59.2891 19.0531H62.8136V15.5285H59.2891V19.0531ZM59.2891 56.9772H75.643V49.9281H59.2891V56.9772ZM72.1184 53.4526V66H79.1675V53.4526H72.1184ZM75.643 62.4755H45.8958V69.5245H75.643V62.4755ZM49.4203 66V19.0531H42.3712V66H49.4203ZM45.8958 22.5776H59.2891V15.5285H45.8958V22.5776ZM55.7645 19.0531V53.4526H62.8136V19.0531H55.7645ZM89.4955 54.4395H85.971V57.964H89.4955V54.4395ZM106.202 54.4395H109.726V50.9149H106.202V54.4395ZM106.202 66V69.5245H109.726V66H106.202ZM76.1022 66H72.5777V69.5245H76.1022V66ZM76.1022 19.0531V15.5285H72.5777V19.0531H76.1022ZM105.567 19.0531H109.092V15.5285H105.567V19.0531ZM105.567 30.6136V34.1381H109.092V30.6136H105.567ZM89.4955 30.6136V27.089H85.971V30.6136H89.4955ZM89.4955 36.4643H85.971V39.9889H89.4955V36.4643ZM104.087 36.4643H107.612V32.9398H104.087V36.4643ZM104.087 48.0248V51.5494H107.612V48.0248H104.087ZM89.4955 48.0248V44.5003H85.971V48.0248H89.4955ZM89.4955 57.964H106.202V50.9149H89.4955V57.964ZM102.677 54.4395V66H109.726V54.4395H102.677ZM106.202 62.4755H76.1022V69.5245H106.202V62.4755ZM79.6268 66V19.0531H72.5777V66H79.6268ZM76.1022 22.5776H105.567V15.5285H76.1022V22.5776ZM102.043 19.0531V30.6136H109.092V19.0531H102.043ZM105.567 27.089H89.4955V34.1381H105.567V27.089ZM85.971 30.6136V36.4643H93.0201V30.6136H85.971ZM89.4955 39.9889H104.087V32.9398H89.4955V39.9889ZM100.563 36.4643V48.0248H107.612V36.4643H100.563ZM104.087 44.5003H89.4955V51.5494H104.087V44.5003ZM85.971 48.0248V54.4395H93.0201V48.0248H85.971ZM150.18 19.0531L153.64 19.7258L154.456 15.5285H150.18V19.0531ZM147.713 31.7414V35.266H150.618L151.172 32.4142L147.713 31.7414ZM134.813 31.7414V28.2169H131.905L131.352 31.0721L134.813 31.7414ZM128.187 66V69.5245H131.095L131.647 66.6693L128.187 66ZM114.934 66L111.474 65.3307L110.663 69.5245H114.934V66ZM121.561 31.7414L125.021 32.4107L125.832 28.2169H121.561V31.7414ZM108.308 31.7414L104.849 31.0687L104.032 35.266H108.308V31.7414ZM110.775 19.0531V15.5285H107.87L107.316 18.3803L110.775 19.0531ZM146.72 18.3803L144.253 31.0687L151.172 32.4142L153.64 19.7258L146.72 18.3803ZM147.713 28.2169H134.813V35.266H147.713V28.2169ZM131.352 31.0721L124.726 65.3307L131.647 66.6693L138.273 32.4107L131.352 31.0721ZM128.187 62.4755H114.934V69.5245H128.187V62.4755ZM118.395 66.6693L125.021 32.4107L118.1 31.0721L111.474 65.3307L118.395 66.6693ZM121.561 28.2169H108.308V35.266H121.561V28.2169ZM111.768 32.4142L114.235 19.7258L107.316 18.3803L104.849 31.0687L111.768 32.4142ZM110.775 22.5776H150.18V15.5285H110.775V22.5776ZM174.856 19.0531V15.5285H171.331V19.0531H174.856ZM188.249 19.0531H191.773V15.5285H188.249V19.0531ZM188.249 66V69.5245H191.773V66H188.249ZM174.856 66H171.331V69.5245H174.856V66ZM174.856 48.8002H178.38V45.2757H174.856V48.8002ZM158.995 48.8002V45.2757H155.471V48.8002H158.995ZM158.995 66V69.5245H162.52V66H158.995ZM145.602 66H142.077V69.5245H145.602V66ZM145.602 19.0531V15.5285H142.077V19.0531H145.602ZM158.995 19.0531H162.52V15.5285H158.995V19.0531ZM158.995 36.1119H155.471V39.6364H158.995V36.1119ZM174.856 36.1119V39.6364H178.38V36.1119H174.856ZM174.856 22.5776H188.249V15.5285H174.856V22.5776ZM184.724 19.0531V66H191.773V19.0531H184.724ZM188.249 62.4755H174.856V69.5245H188.249V62.4755ZM178.38 66V48.8002H171.331V66H178.38ZM174.856 45.2757H158.995V52.3248H174.856V45.2757ZM155.471 48.8002V66H162.52V48.8002H155.471ZM158.995 62.4755H145.602V69.5245H158.995V62.4755ZM149.126 66V19.0531H142.077V66H149.126ZM145.602 22.5776H158.995V15.5285H145.602V22.5776ZM155.471 19.0531V36.1119H162.52V19.0531H155.471ZM158.995 39.6364H174.856V32.5873H158.995V39.6364ZM178.38 36.1119V19.0531H171.331V36.1119H178.38ZM196.979 61.0656L194.501 63.5721L194.515 63.5862L194.53 63.6002L196.979 61.0656ZM191.128 44.9232L187.606 44.7967L187.606 44.7992L191.128 44.9232ZM198.53 25.5382L195.932 23.1555L195.931 23.1566L198.53 25.5382ZM234.55 23.9874L232.072 26.4939L232.087 26.508L232.101 26.522L234.55 23.9874ZM240.472 40.0593L243.994 40.1851L243.994 40.1834L240.472 40.0593ZM233 59.5148L230.413 57.1202L230.407 57.1267L230.401 57.1332L233 59.5148ZM222.99 51.1264L225.929 53.071L225.936 53.0607L225.943 53.0504L222.99 51.1264ZM223.695 32.1644L220.949 34.3743L220.962 34.3909L220.976 34.4073L223.695 32.1644ZM208.539 33.8561L205.6 31.9115L205.589 31.9274L205.579 31.9433L208.539 33.8561ZM207.834 52.8887L205.082 55.0905L205.099 55.1112L205.116 55.1317L207.834 52.8887ZM213.897 63.6033C207.501 63.6033 202.814 61.8035 199.428 58.5311L194.53 63.6002C199.508 68.4108 206.1 70.6524 213.897 70.6524V63.6033ZM199.457 58.5592C196.128 55.2684 194.444 50.8965 194.65 45.0472L187.606 44.7992C187.342 52.2962 189.558 58.6859 194.501 63.5721L199.457 58.5592ZM194.65 45.0498C194.907 37.9144 197.121 32.2909 201.128 27.9198L195.931 23.1566C190.633 28.9362 187.913 36.2361 187.606 44.7967L194.65 45.0498ZM201.127 27.9209C205.048 23.6466 210.431 21.3793 217.703 21.3793V14.3302C208.809 14.3302 201.41 17.1852 195.932 23.1555L201.127 27.9209ZM217.703 21.3793C224.088 21.3793 228.737 23.1959 232.072 26.4939L237.028 21.481C232.093 16.602 225.51 14.3302 217.703 14.3302V21.3793ZM232.101 26.522C235.456 29.7635 237.155 34.0973 236.949 39.9353L243.994 40.1834C244.258 32.6751 242.01 26.2943 236.999 21.4528L232.101 26.522ZM236.949 39.9336C236.693 47.1121 234.458 52.7522 230.413 57.1202L235.586 61.9094C240.94 56.1268 243.686 48.7966 243.994 40.1851L236.949 39.9336ZM230.401 57.1332C226.534 61.3525 221.179 63.6033 213.897 63.6033V70.6524C222.78 70.6524 230.161 67.8279 235.598 61.8965L230.401 57.1332ZM214.319 59.2329C219.224 59.2329 223.235 57.1432 225.929 53.071L220.05 49.1818C218.703 51.2188 216.934 52.1838 214.319 52.1838V59.2329ZM225.943 53.0504C228.404 49.2737 229.546 44.8145 229.546 39.8479H222.496C222.496 43.7161 221.618 46.776 220.037 49.2024L225.943 53.0504ZM229.546 39.8479C229.546 36.0589 228.635 32.6147 226.413 29.9214L220.976 34.4073C221.856 35.4735 222.496 37.1517 222.496 39.8479H229.546ZM226.44 29.9544C224.147 27.1045 220.949 25.7497 217.28 25.7497V32.7988C219.063 32.7988 220.141 33.3708 220.949 34.3743L226.44 29.9544ZM217.28 25.7497C212.346 25.7497 208.303 27.8247 205.6 31.9115L211.479 35.8008C212.817 33.7784 214.601 32.7988 217.28 32.7988V25.7497ZM205.579 31.9433C203.165 35.6798 202.054 40.1149 202.054 45.0642H209.103C209.103 41.1786 209.966 38.1417 211.5 35.769L205.579 31.9433ZM202.054 45.0642C202.054 48.8961 202.916 52.3832 205.082 55.0905L210.587 50.6869C209.745 49.6347 209.103 47.9054 209.103 45.0642H202.054ZM205.116 55.1317C207.433 57.9407 210.658 59.2329 214.319 59.2329V52.1838C212.436 52.1838 211.337 51.5961 210.553 50.6457L205.116 55.1317ZM278.978 43.2314L276.015 41.323L276.003 41.3409L275.992 41.3589L278.978 43.2314ZM271.224 49.6461L269.809 46.4181L266.682 47.7887L267.952 50.9575L271.224 49.6461ZM277.779 66V69.5245H282.99L281.051 64.6886L277.779 66ZM263.611 66L260.298 67.2045L261.142 69.5245H263.611V66ZM258.535 52.0428L261.848 50.8383L261.004 48.5183H258.535V52.0428ZM254.024 52.0428V48.5183H251.112L250.563 51.3785L254.024 52.0428ZM251.345 66V69.5245H254.258L254.807 66.6643L251.345 66ZM237.952 66L234.492 65.3298L233.679 69.5245H237.952V66ZM247.045 19.0531V15.5285H244.138L243.585 18.3828L247.045 19.0531ZM277.357 23.0006L274.952 25.5772L274.974 25.5979L274.996 25.6182L277.357 23.0006ZM258.112 30.6136V27.089H255.208L254.653 29.9402L258.112 30.6136ZM256.068 41.1167L252.609 40.4434L251.792 44.6413H256.068V41.1167ZM278.132 33.5742C278.132 36.6409 277.394 39.1816 276.015 41.323L281.941 45.1399C284.133 41.736 285.181 37.8385 285.181 33.5742H278.132ZM275.992 41.3589C274.681 43.4488 272.688 45.1559 269.809 46.4181L272.639 52.8741C276.621 51.1287 279.797 48.5594 281.964 45.104L275.992 41.3589ZM267.952 50.9575L274.508 67.3114L281.051 64.6886L274.495 48.3347L267.952 50.9575ZM277.779 62.4755H263.611V69.5245H277.779V62.4755ZM266.923 64.7955L261.848 50.8383L255.223 53.2473L260.298 67.2045L266.923 64.7955ZM258.535 48.5183H257.972V55.5673H258.535V48.5183ZM257.972 48.5183H254.024V55.5673H257.972V48.5183ZM250.563 51.3785L247.884 65.3357L254.807 66.6643L257.485 52.7071L250.563 51.3785ZM251.345 62.4755H237.952V69.5245H251.345V62.4755ZM241.412 66.6702L250.506 19.7233L243.585 18.3828L234.492 65.3298L241.412 66.6702ZM247.045 22.5776H265.021V15.5285H247.045V22.5776ZM265.021 22.5776C269.892 22.5776 273.007 23.7622 274.952 25.5772L279.761 20.4239C276.067 16.9755 270.958 15.5285 265.021 15.5285V22.5776ZM274.996 25.6182C277.003 27.4273 278.132 29.9357 278.132 33.5742H285.181C285.181 28.2838 283.443 23.7431 279.717 20.3829L274.996 25.6182ZM254.653 29.9402L252.609 40.4434L259.528 41.7901L261.572 31.2869L254.653 29.9402ZM256.068 44.6413H260.157V37.5922H256.068V44.6413ZM260.157 44.6413C263.089 44.6413 265.926 44.125 268.103 42.5364C270.486 40.797 271.506 38.207 271.506 35.4069H264.457C264.457 36.4134 264.172 36.6783 263.947 36.8422C263.516 37.1568 262.441 37.5922 260.157 37.5922V44.6413ZM271.506 35.4069C271.506 33.0599 270.756 30.7268 268.752 29.0855C266.883 27.5544 264.472 27.089 262.13 27.089V34.1381C263.689 34.1381 264.203 34.4716 264.285 34.5383C264.305 34.555 264.323 34.5688 264.351 34.6381C264.388 34.729 264.457 34.9598 264.457 35.4069H271.506ZM262.13 27.089H258.112V34.1381H262.13V27.089ZM309.871 66L306.506 67.0495L307.278 69.5245H309.871V66ZM307.474 58.3165L310.839 57.267L310.067 54.7919H307.474V58.3165ZM291.402 58.3165V54.7919H288.832L288.047 57.2389L291.402 58.3165ZM288.935 66V69.5245H291.505L292.291 67.0775L288.935 66ZM275.753 66L272.408 64.89L270.87 69.5245H275.753V66ZM291.332 19.0531V15.5285H288.788L287.987 17.943L291.332 19.0531ZM307.968 19.0531L311.313 17.943L310.512 15.5285H307.968V19.0531ZM323.546 66V69.5245H328.429L326.891 64.89L323.546 66ZM294.715 47.8838L291.353 46.8261L289.912 51.4084H294.715V47.8838ZM304.161 47.8838V51.4084H308.982L307.52 46.8144L304.161 47.8838ZM300.143 35.266L296.715 36.0823L296.745 36.2102L296.785 36.3354L300.143 35.266ZM299.438 32.3054L302.867 31.489L296.024 31.4319L299.438 32.3054ZM298.663 35.3365L302.025 36.3942L302.054 36.3028L302.078 36.21L298.663 35.3365ZM313.236 64.9505L310.839 57.267L304.11 59.366L306.506 67.0495L313.236 64.9505ZM307.474 54.7919H291.402V61.841H307.474V54.7919ZM288.047 57.2389L285.579 64.9225L292.291 67.0775L294.758 59.394L288.047 57.2389ZM288.935 62.4755H275.753V69.5245H288.935V62.4755ZM279.099 67.11L294.677 20.1631L287.987 17.943L272.408 64.89L279.099 67.11ZM291.332 22.5776H307.968V15.5285H291.332V22.5776ZM304.623 20.1631L320.201 67.11L326.891 64.89L311.313 17.943L304.623 20.1631ZM323.546 62.4755H309.871V69.5245H323.546V62.4755ZM294.715 51.4084H304.161V44.3593H294.715V51.4084ZM307.52 46.8144L303.502 34.1965L296.785 36.3354L300.803 48.9533L307.52 46.8144ZM303.572 34.4496L302.867 31.489L296.01 33.1217L296.715 36.0823L303.572 34.4496ZM296.024 31.4319L295.248 34.463L302.078 36.21L302.853 33.1788L296.024 31.4319ZM295.301 34.2787L291.353 46.8261L298.078 48.9416L302.025 36.3942L295.301 34.2787Z" fill="#24296B" mask="url(#path-1-outside-1_231_1044)"/>
</g>
<path d="M337.359 67.3348V68.3657H335.552V73.2031H334.451V68.3657H332.645V67.3348H337.359ZM343.185 67.3348L343.572 73.2031H342.55L342.365 69.9429L342.356 69.1323L342.215 69.6345L340.92 72.8771H339.916L338.656 69.6874L338.506 69.1147L338.497 69.987L338.321 73.2031H337.307L337.686 67.3348H338.823L340.453 71.529L342.066 67.3348H343.185Z" fill="#24296B"/>
<defs>
<filter id="filter0_d_231_1044" x="0.251823" y="17.8555" width="323.294" height="53.6772" filterUnits="userSpaceOnUse" color-interpolation-filters="sRGB">
<feFlood flood-opacity="0" result="BackgroundImageFix"/>
<feColorMatrix in="SourceAlpha" type="matrix" values="0 0 0 0 0 0 0 0 0 0 0 0 0 0 0 0 0 0 127 0" result="hardAlpha"/>
<feOffset dx="-3.52454" dy="4.40568"/>
<feComposite in2="hardAlpha" operator="out"/>
<feColorMatrix type="matrix" values="0 0 0 0 0.176471 0 0 0 0 0.2 0 0 0 0 0.498039 0 0 0 1 0"/>
<feBlend mode="normal" in2="BackgroundImageFix" result="effect1_dropShadow_231_1044"/>
<feBlend mode="normal" in="SourceGraphic" in2="effect1_dropShadow_231_1044" result="shape"/>
</filter>
</defs>
</svg>
